<svg width="34" height="34" viewBox="0 0 34 34" fill="none" xmlns="http://www.w3.org/2000/svg">
<g clip-path="url(#clip0_220_351)">
<path d="M26.9167 29.75H7.08341C6.70769 29.75 6.34736 29.6008 6.08168 29.3351C5.816 29.0694 5.66675 28.7091 5.66675 28.3334V15.5834H1.41675L16.0467 2.2837C16.3075 2.04637 16.6474 1.91486 17.0001 1.91486C17.3527 1.91486 17.6927 2.04637 17.9535 2.2837L32.5834 15.5834H28.3334V28.3334C28.3334 28.7091 28.1842 29.0694 27.9185 29.3351C27.6528 29.6008 27.2925 29.75 26.9167 29.75ZM8.50008 26.9167H25.5001V12.9724L17.0001 5.24595L8.50008 12.9724V26.9167ZM12.7501 14.1667H21.2501V22.6667H12.7501V14.1667ZM15.5834 17V19.8334H18.4167V17H15.5834Z" fill="#09121F"/>
</g>
<defs>
<clipPath id="clip0_220_351">
<rect width="34" height="34" fill="white"/>
</clipPath>
</defs>
</svg>
