<svg width="44" height="44" viewBox="0 0 44 44" fill="none" xmlns="http://www.w3.org/2000/svg">
<g clip-path="url(#clip0_218_345)">
<path d="M16.4358 33C16.2178 34.5296 15.4553 35.9291 14.2883 36.9416C13.1213 37.9541 11.6282 38.5115 10.0833 38.5115C8.53827 38.5115 7.04516 37.9541 5.87817 36.9416C4.71119 35.9291 3.9487 34.5296 3.73075 33H1.83325V11C1.83325 10.5138 2.02641 10.0475 2.37022 9.70366C2.71404 9.35984 3.18035 9.16669 3.66659 9.16669H29.3333C29.8195 9.16669 30.2858 9.35984 30.6296 9.70366C30.9734 10.0475 31.1666 10.5138 31.1666 11V14.6667H36.6666L42.1666 22.1027V33H38.4357C38.2178 34.5296 37.4553 35.9291 36.2883 36.9416C35.1213 37.9541 33.6282 38.5115 32.0833 38.5115C30.5383 38.5115 29.0452 37.9541 27.8782 36.9416C26.7112 35.9291 25.9487 34.5296 25.7308 33H16.4358ZM27.4999 12.8334H5.49992V27.5917C6.22328 26.8532 7.11435 26.3004 8.0973 25.9804C9.08024 25.6604 10.126 25.5825 11.1454 25.7536C12.1649 25.9246 13.128 26.3394 13.9527 26.9627C14.7774 27.586 15.4393 28.3993 15.8821 29.3334H26.2844C26.5924 28.6862 27.0049 28.0977 27.4999 27.5917V12.8334ZM31.1666 23.8334H38.4999V23.3109L34.8186 18.3334H31.1666V23.8334ZM32.0833 34.8334C32.8128 34.8334 33.5125 34.5435 34.0284 34.0276C34.5443 33.5117 34.8342 32.812 34.8342 32.0824C34.8342 31.3528 34.5443 30.6531 34.0284 30.1372C33.5125 29.6213 32.8128 29.3315 32.0833 29.3315C31.3537 29.3315 30.654 29.6213 30.1381 30.1372C29.6222 30.6531 29.3323 31.3528 29.3323 32.0824C29.3323 32.812 29.6222 33.5117 30.1381 34.0276C30.654 34.5435 31.3537 34.8334 32.0833 34.8334ZM12.8333 32.0834C12.8333 31.7222 12.7621 31.3646 12.6239 31.031C12.4857 30.6973 12.2832 30.3942 12.0278 30.1388C11.7724 29.8834 11.4693 29.6809 11.1356 29.5427C10.802 29.4045 10.4444 29.3334 10.0833 29.3334C9.72212 29.3334 9.36452 29.4045 9.03087 29.5427C8.69723 29.6809 8.39407 29.8834 8.13871 30.1388C7.88335 30.3942 7.68078 30.6973 7.54258 31.031C7.40438 31.3646 7.33325 31.7222 7.33325 32.0834C7.33325 32.8127 7.62298 33.5122 8.13871 34.0279C8.65443 34.5436 9.35391 34.8334 10.0833 34.8334C10.8126 34.8334 11.5121 34.5436 12.0278 34.0279C12.5435 33.5122 12.8333 32.8127 12.8333 32.0834Z" fill="#09121F"/>
</g>
<defs>
<clipPath id="clip0_218_345">
<rect width="44" height="44" fill="white"/>
</clipPath>
</defs>
</svg>
