<svg width="26" height="26" viewBox="0 0 26 26" fill="none" xmlns="http://www.w3.org/2000/svg">
<g clip-path="url(#clip0_226_181)">
<path d="M10.5569 23.5574C5.75017 22.4492 2.1665 18.1429 2.1665 13.0003C2.1665 7.01708 7.01659 2.16699 12.9998 2.16699C18.9831 2.16699 23.8332 7.01708 23.8332 13.0003C23.8332 18.1429 20.2495 22.4492 15.4428 23.5574L12.9998 26.0003L10.5569 23.5574ZM7.59617 19.7787C8.60562 20.586 9.78377 21.1559 11.0433 21.446L11.65 21.5857L12.9998 22.9367L14.3508 21.5857L14.9574 21.4449C16.2992 21.1356 17.5474 20.5093 18.5974 19.6184C17.892 18.8943 17.0484 18.319 16.1168 17.9265C15.1851 17.5341 14.1841 17.3325 13.1732 17.3337C10.9675 17.3337 8.98067 18.2762 7.59617 19.7787ZM6.08384 18.222C6.99433 17.2557 8.09306 16.4862 9.31232 15.9608C10.5316 15.4354 11.8455 15.1652 13.1732 15.167C14.4533 15.1653 15.7211 15.4166 16.9039 15.9062C18.0867 16.3959 19.161 17.1144 20.0653 18.0205C20.9928 16.7152 21.5404 15.1785 21.6476 13.5809C21.7548 11.9833 21.4173 10.3872 20.6725 8.96974C19.9278 7.55227 18.8049 6.36883 17.4285 5.55072C16.052 4.73261 14.4759 4.31182 12.8748 4.33502C11.2738 4.35821 9.71047 4.8245 8.35832 5.68215C7.00617 6.53979 5.91804 7.75526 5.21467 9.19371C4.5113 10.6322 4.22017 12.2373 4.3736 13.8312C4.52702 15.425 5.11899 16.9452 6.08384 18.2231V18.222ZM12.9998 14.0837C11.8506 14.0837 10.7484 13.6271 9.93571 12.8145C9.12305 12.0018 8.6665 10.8996 8.6665 9.75033C8.6665 8.60105 9.12305 7.49885 9.93571 6.6862C10.7484 5.87354 11.8506 5.41699 12.9998 5.41699C14.1491 5.41699 15.2513 5.87354 16.064 6.6862C16.8766 7.49885 17.3332 8.60105 17.3332 9.75033C17.3332 10.8996 16.8766 12.0018 16.064 12.8145C15.2513 13.6271 14.1491 14.0837 12.9998 14.0837ZM12.9998 11.917C13.5745 11.917 14.1256 11.6887 14.5319 11.2824C14.9382 10.8761 15.1665 10.325 15.1665 9.75033C15.1665 9.17569 14.9382 8.62459 14.5319 8.21826C14.1256 7.81193 13.5745 7.58366 12.9998 7.58366C12.4252 7.58366 11.8741 7.81193 11.4678 8.21826C11.0614 8.62459 10.8332 9.17569 10.8332 9.75033C10.8332 10.325 11.0614 10.8761 11.4678 11.2824C11.8741 11.6887 12.4252 11.917 12.9998 11.917Z" fill="#09121F"/>
</g>
<defs>
<clipPath id="clip0_226_181">
<rect width="26" height="26" fill="white"/>
</clipPath>
</defs>
</svg>
