<svg width="26" height="28" viewBox="0 0 26 28" fill="none" xmlns="http://www.w3.org/2000/svg">
<g clip-path="url(#clip0_226_183)">
<path d="M13.0001 2.33301C15.0113 2.33301 16.9402 3.19342 18.3623 4.72497C19.7845 6.25652 20.5834 8.33374 20.5834 10.4997H21.7469C22.0198 10.4997 22.2826 10.6106 22.4828 10.8102C22.6831 11.0099 22.806 11.2835 22.827 11.5765L23.7435 24.4098C23.7656 24.7183 23.673 25.0236 23.4861 25.2586C23.2992 25.4936 23.0333 25.639 22.7468 25.6628L22.6634 25.6663H3.33675C3.04943 25.6663 2.77388 25.5434 2.57072 25.3246C2.36755 25.1058 2.25342 24.8091 2.25342 24.4997L2.25667 24.4098L3.17317 11.5765C3.19418 11.2835 3.31709 11.0099 3.51732 10.8102C3.71756 10.6106 3.98038 10.4997 4.25325 10.4997H5.41675C5.41675 8.33374 6.21571 6.25652 7.63786 4.72497C9.06001 3.19342 10.9889 2.33301 13.0001 2.33301ZM20.7427 12.833H5.25642L4.50567 23.333H21.4934L20.7427 12.833ZM15.1668 15.1663V17.4997H10.8334V15.1663H15.1668ZM13.0001 4.66634C11.6042 4.66643 10.2623 5.24681 9.25416 6.28644C8.24599 7.32608 7.64941 8.74472 7.58883 10.2465L7.58342 10.4997H18.4167C18.4167 8.99647 17.8777 7.55132 16.9124 6.4656C15.947 5.37988 14.6297 4.73741 13.2352 4.67217L13.0001 4.66634Z" fill="#09121F"/>
</g>
<defs>
<clipPath id="clip0_226_183">
<rect width="26" height="28" fill="white"/>
</clipPath>
</defs>
</svg>
