<svg width="26" height="26" viewBox="0 0 26 26" fill="none" xmlns="http://www.w3.org/2000/svg">
<g clip-path="url(#clip0_226_182)">
<path d="M13.0009 4.90639C15.5457 2.62164 19.4782 2.69748 21.9298 5.1534C24.3803 7.61039 24.4648 11.5234 22.1854 14.0757L12.9988 23.2754L3.81426 14.0757C1.53493 11.5234 1.62051 7.6039 4.06993 5.1534C6.52368 2.70073 10.4486 2.61839 13.0009 4.90639ZM20.3958 6.68415C18.7708 5.05698 16.1491 4.9909 14.4483 6.5184L13.002 7.81623L11.5547 6.51948C9.84843 4.98981 7.23218 5.05698 5.60284 6.68631C3.98868 8.30048 3.90743 10.8842 5.39484 12.5916L12.9998 20.2085L20.6048 12.5926C22.0933 10.8842 22.0121 8.30373 20.3958 6.68415Z" fill="#09121F"/>
</g>
<defs>
<clipPath id="clip0_226_182">
<rect width="26" height="26" fill="white"/>
</clipPath>
</defs>
</svg>
