<svg width="124" height="103" viewBox="0 0 124 103" fill="none" xmlns="http://www.w3.org/2000/svg">
<g clip-path="url(#clip0_943_489)">
<path d="M0 78.7588C0 78.4919 0.212791 78.2773 0.477482 78.2773H8.65696C14.3245 78.2773 17.7187 80.3184 17.7187 85.4681C17.7187 88.9275 16.1981 90.9109 13.4473 91.9158C13.1775 92.0152 13.0633 92.3449 13.2034 92.5961L17.672 100.792C17.8485 101.116 17.6149 101.509 17.2516 101.509H12.9906C12.8142 101.509 12.6533 101.415 12.5702 101.258L8.04972 92.9991C7.96668 92.8473 7.80579 92.7479 7.62933 92.7479H5.46509C5.2004 92.7479 4.98761 92.9625 4.98761 93.2294V101.022C4.98761 101.289 4.77482 101.503 4.51013 101.503H0.477482C0.212791 101.503 0 101.289 0 101.022V78.7536V78.7588ZM8.43898 88.7966C11.3661 88.7966 12.7675 87.9488 12.7675 85.5937C12.7675 83.2387 11.3661 82.4537 8.43898 82.4537H5.4599C5.19521 82.4537 4.98242 82.6682 4.98242 82.9351V88.3099C4.98242 88.5768 5.19521 88.7914 5.4599 88.7914H8.43898V88.7966Z" fill="black"/>
<path d="M35.7177 1.78461C35.7177 0.983893 35.9357 0 36.735 0C40.8299 0 40.8299 0.523347 44.9196 0.523347C49.0094 0.523347 49.0145 0.612316 53.1043 0.612316C57.194 0.612316 57.1992 0.429145 61.2889 0.429145C64.8908 0.429145 68.1761 0.654184 71.1396 1.2351C74.7259 1.93639 77.9489 2.84701 80.4868 4.50079C83.3154 6.34297 85.3707 8.99111 86.7408 12.1574C87.919 14.8788 88.4639 18.1288 88.4639 21.9283C88.4639 25.0683 87.8411 27.7165 87.0315 30.0872C86.0765 32.8872 85.1942 35.6818 83.1805 37.5397C81.1667 39.3976 78.6703 40.7688 75.847 41.7998C75.0321 42.0981 74.2588 42.7208 74.6792 43.4849C76.9161 47.588 77.6064 47.2059 79.8433 51.309C82.0802 55.412 81.8311 55.5481 84.068 59.6511C86.3049 63.7542 85.791 64.042 88.0279 68.1398C88.5573 69.108 88.1836 69.4901 87.0886 69.4901C80.6893 69.4901 80.6893 70.2123 74.29 70.2123C73.7658 70.2123 73.0028 69.982 72.7485 69.5162C70.4857 65.3818 70.3248 65.4708 68.0619 61.3363C65.7991 57.2019 66.0223 57.0763 63.7594 52.9418C61.4966 48.8074 62.0415 48.5038 59.7787 44.3694C59.5243 43.9088 58.7147 43.3593 58.1905 43.3593C54.9416 43.3593 54.9416 43.3698 51.6874 43.3698C50.8933 43.3698 50.1304 44.4531 50.1304 45.2539C50.1304 51.1049 49.5699 51.1049 49.5699 56.9559C49.5699 62.8069 49.6477 62.8069 49.6477 68.658C49.6477 69.4587 49.601 70.2071 48.8069 70.2071C42.7658 70.2071 42.7658 70.1129 36.7246 70.1129C35.9305 70.1129 35.6243 69.4587 35.6243 68.658C35.6243 63.8798 35.4894 63.8798 35.4894 59.1069C35.4894 54.3287 35.235 54.3287 35.235 49.5558C35.235 44.7828 35.069 44.7828 35.069 40.0047C35.069 35.2265 35.3596 35.2265 35.3596 30.4484C35.3596 25.6702 34.7783 25.6702 34.7783 20.892C34.7783 16.1139 35.6035 16.1243 35.7437 11.3514C35.8838 6.56801 35.7073 6.55754 35.7073 1.77938L35.7177 1.78461ZM60.635 32.3481C64.5483 32.3481 67.3924 31.1235 69.5255 29.9407C72.1828 28.4649 73.8229 26.2249 73.8229 22.2998C73.8229 18.3747 72.4475 15.7057 69.7487 14.256C67.6208 13.1151 64.5068 12.7697 60.635 12.7697C56.1664 12.7697 56.1664 12.8168 51.6926 12.8168C50.8985 12.8168 50.4781 13.5181 50.4781 14.3188C50.4781 18.3538 50.2913 18.3538 50.2913 22.3888C50.2913 26.4238 50.2186 26.4238 50.2186 30.4588C50.2186 31.2595 50.8778 32.1649 51.6718 32.1649C56.1353 32.526 56.1612 32.3376 60.635 32.3376V32.3481Z" fill="#D4AA7D"/>
<path d="M18.7464 93.1611C18.7464 86.6611 23.6665 84.4316 27.092 84.4316C30.5174 84.4316 34.7213 86.1587 34.7213 93.7577C34.7213 94.1764 34.3891 94.5113 33.9739 94.5113H24.6007C24.1129 94.5113 23.7652 94.9771 23.8741 95.4533C24.3568 97.5206 25.7581 98.3422 27.585 98.3422C29.2199 98.3422 30.7665 97.6671 31.8875 96.8402C32.2353 96.5838 32.7179 96.6623 32.9463 97.0234L34.0673 98.7714C34.2853 99.1115 34.1919 99.5564 33.8701 99.7971C32.0432 101.163 29.8271 101.859 27.2113 101.859C22.8828 101.859 18.7412 99.6296 18.7412 93.1611H18.7464ZM30.2371 91.5282C29.988 89.1732 28.9292 88.0427 27.0608 88.0427C25.5038 88.0427 24.1648 89.079 23.7911 91.5282H30.2371Z" fill="black"/>
<path d="M35.069 84.7773H39.7867C39.8801 84.7773 39.958 84.8349 39.9891 84.9239L43.4301 95.9246H43.4924L46.9334 84.9239C46.9593 84.8349 47.0424 84.7773 47.1358 84.7773H51.3864C51.5317 84.7773 51.6303 84.9239 51.5836 85.0599L45.8175 101.404C45.7864 101.488 45.7085 101.545 45.6203 101.545H40.8714C40.7832 101.545 40.7053 101.488 40.6742 101.404L34.8769 85.0599C34.8302 84.9239 34.9288 84.7773 35.0742 84.7773H35.069Z" fill="black"/>
<path d="M55.4762 78.4336H59.3221C59.6542 78.4336 59.9189 78.7057 59.9189 79.0354V81.8772C59.9189 82.2122 59.649 82.4791 59.3221 82.4791H55.4762C55.1441 82.4791 54.8794 82.2069 54.8794 81.8772V79.0354C54.8794 78.7005 55.1493 78.4336 55.4762 78.4336ZM55.5074 84.7766H59.2909C59.6231 84.7766 59.8878 85.0487 59.8878 85.3784V100.906C59.8878 101.241 59.6179 101.508 59.2909 101.508H55.5074C55.1752 101.508 54.9105 101.236 54.9105 100.906V85.3784C54.9105 85.0435 55.1804 84.7766 55.5074 84.7766Z" fill="black"/>
<path d="M63.8425 84.7773H68.6588C68.7315 84.7773 68.7938 84.8244 68.8146 84.8925L72.2659 95.9246H72.3282L75.7796 84.8925C75.8003 84.8244 75.8626 84.7773 75.9353 84.7773H80.2845C80.3987 84.7773 80.4765 84.8925 80.4402 84.9971L74.6378 101.435C74.617 101.504 74.5547 101.545 74.4821 101.545H69.6657C69.5982 101.545 69.536 101.504 69.51 101.435L63.6816 84.9971C63.6453 84.8872 63.7231 84.7773 63.8373 84.7773H63.8425Z" fill="black"/>
<path d="M82.3967 93.6845C82.3967 87.1845 87.3169 84.9551 90.7423 84.9551C94.1677 84.9551 98.3716 86.6821 98.3716 94.2811C98.3716 94.6998 98.0395 95.0347 97.6243 95.0347H88.2563C87.7684 95.0347 87.4207 95.5005 87.5297 95.9768C88.0123 98.044 89.4136 98.8657 91.2405 98.8657C92.8754 98.8657 94.422 98.1905 95.5431 97.3636C95.8908 97.1072 96.3735 97.1857 96.6018 97.5468L97.7229 99.2948C97.9408 99.635 97.8474 100.08 97.5256 100.321C95.6988 101.686 93.4826 102.383 90.8668 102.383C86.5384 102.383 82.3967 100.153 82.3967 93.6845ZM93.0051 92.0517C93.493 92.0517 93.8459 91.5859 93.7317 91.1096C93.3165 89.3931 92.3149 88.5662 90.7163 88.5662C89.3877 88.5662 88.2199 89.3198 87.675 91.0573C87.5193 91.544 87.8774 92.0517 88.386 92.0517H93.0103H93.0051Z" fill="black"/>
<path d="M99.9546 83.1451C99.5549 83.1451 99.2332 82.8206 99.2332 82.4176V79.0107C99.2332 78.6077 99.5549 78.2832 99.9546 78.2832H103.645C104.044 78.2832 104.366 78.6077 104.366 79.0107V82.5433C104.366 82.6689 104.335 82.7945 104.273 82.9044L102.212 86.5469C102.082 86.7719 101.844 86.9132 101.584 86.9132H100.692C100.193 86.9132 99.8456 86.416 100.006 85.9398L100.64 84.1133C100.806 83.637 100.453 83.1399 99.9546 83.1399V83.1451Z" fill="black"/>
<path d="M105.461 96.9926L108.279 95.3074C108.554 95.1452 108.913 95.2237 109.079 95.501C110.397 97.7253 112.566 98.9499 115.032 98.9499C117.367 98.9499 119.049 98.0707 119.049 96.2808C119.049 94.491 117.398 93.7688 114.378 92.9209C110.267 91.7591 105.97 90.6915 105.97 85.8244C105.97 81.491 109.333 78.8848 114.284 78.8848C118.706 78.8848 121.441 80.884 123.102 83.171C123.294 83.4327 123.247 83.8042 122.988 84.0031L120.408 85.9814C120.149 86.1802 119.78 86.1279 119.583 85.8662C118.322 84.1653 116.298 83.0611 114.248 83.0611C112.198 83.0611 110.916 84.0031 110.916 85.3847C110.916 87.2374 112.629 87.8968 115.649 88.7446C119.697 89.8437 123.995 91.1311 123.995 95.9354C123.995 99.6721 121.192 103.001 114.777 103.001C110.065 103.001 107.023 100.865 105.254 97.8142C105.087 97.5264 105.176 97.1601 105.456 96.9926H105.461Z" fill="black"/>
</g>
<defs>
<clipPath id="clip0_943_489">
<rect width="124" height="103" fill="white"/>
</clipPath>
</defs>
</svg>
