<svg width="44" height="44" viewBox="0 0 44 44" fill="none" xmlns="http://www.w3.org/2000/svg">
<circle cx="22" cy="22" r="22" fill="#D4AA7D"/>
<g clip-path="url(#clip0_431_81)">
<path d="M28.5334 27.0021L33.1733 31.6409L31.6404 33.1738L27.0016 28.5339C25.2756 29.9176 23.1287 30.6701 20.9165 30.667C15.5345 30.667 11.1665 26.299 11.1665 20.917C11.1665 15.535 15.5345 11.167 20.9165 11.167C26.2985 11.167 30.6665 15.535 30.6665 20.917C30.6697 23.1292 29.9171 25.276 28.5334 27.0021ZM26.3603 26.1982C27.7351 24.7844 28.5029 22.8891 28.4998 20.917C28.4998 16.7267 25.1058 13.3337 20.9165 13.3337C16.7262 13.3337 13.3332 16.7267 13.3332 20.917C13.3332 25.1062 16.7262 28.5003 20.9165 28.5003C22.8886 28.5034 24.7839 27.7356 26.1978 26.3607L26.3603 26.1982V26.1982Z" fill="#4F4F4F"/>
</g>
<defs>
<clipPath id="clip0_431_81">
<rect width="26" height="26" fill="white" transform="translate(9 9)"/>
</clipPath>
</defs>
</svg>
